<svg width="24" height="25" viewBox="0 0 24 25" fill="none" xmlns="http://www.w3.org/2000/svg">
<path d="M20.0002 11.499H22.0002C22.0002 6.369 18.1272 2.5 12.9902 2.5V4.5C17.0522 4.5 20.0002 7.443 20.0002 11.499Z" fill="white"/>
<path d="M13.0003 8.49999C15.1033 8.49999 16.0003 9.39699 16.0003 11.5H18.0003C18.0003 8.27499 16.2253 6.49999 13.0003 6.49999V8.49999ZM16.4223 13.943C16.2301 13.7683 15.9776 13.6752 15.7181 13.6832C15.4585 13.6912 15.2123 13.7998 15.0313 13.986L12.6383 16.447C12.0623 16.337 10.9043 15.976 9.71228 14.787C8.52028 13.594 8.15928 12.433 8.05228 11.861L10.5113 9.46699C10.6977 9.28612 10.8064 9.03982 10.8144 8.7802C10.8225 8.52059 10.7292 8.26804 10.5543 8.07599L6.85928 4.01299C6.68432 3.82035 6.44116 3.7035 6.18143 3.68725C5.92171 3.67101 5.66588 3.75665 5.46828 3.92599L3.29828 5.78699C3.12539 5.96051 3.0222 6.19145 3.00828 6.43599C2.99328 6.68599 2.70728 12.608 7.29928 17.202C11.3053 21.207 16.3233 21.5 17.7053 21.5C17.9073 21.5 18.0313 21.494 18.0643 21.492C18.3088 21.4783 18.5396 21.3747 18.7123 21.201L20.5723 19.03C20.7417 18.8325 20.8276 18.5768 20.8115 18.317C20.7954 18.0573 20.6788 17.8141 20.4863 17.639L16.4223 13.943Z" fill="white"/>
</svg>
