<svg width="74" height="73" viewBox="0 0 74 73" fill="none" xmlns="http://www.w3.org/2000/svg">
<path fill-rule="evenodd" clip-rule="evenodd" d="M11.0363 62.108C15.4954 66.5 22.6616 66.5 37 66.5C51.3384 66.5 58.5076 66.5 62.9606 62.105C67.4167 57.716 67.4167 50.642 67.4167 36.5C67.4167 22.358 67.4167 15.287 62.9606 10.892C58.5107 6.5 51.3384 6.5 37 6.5C22.6616 6.5 15.4924 6.5 11.0363 10.892C6.58333 15.29 6.58333 22.358 6.58333 36.5C6.58333 50.642 6.58333 57.716 11.0363 62.108ZM57.5312 48.5C57.5312 49.0967 57.2909 49.669 56.8631 50.091C56.4353 50.5129 55.855 50.75 55.25 50.75H18.75C18.145 50.75 17.5647 50.5129 17.1369 50.091C16.7091 49.669 16.4687 49.0967 16.4687 48.5C16.4687 47.9033 16.7091 47.331 17.1369 46.909C17.5647 46.487 18.145 46.25 18.75 46.25H55.25C55.855 46.25 56.4353 46.487 56.8631 46.909C57.2909 47.331 57.5312 47.9033 57.5312 48.5ZM55.25 38.75C55.855 38.75 56.4353 38.5129 56.8631 38.091C57.2909 37.669 57.5312 37.0967 57.5312 36.5C57.5312 35.9033 57.2909 35.331 56.8631 34.909C56.4353 34.4871 55.855 34.25 55.25 34.25H18.75C18.145 34.25 17.5647 34.4871 17.1369 34.909C16.7091 35.331 16.4687 35.9033 16.4687 36.5C16.4687 37.0967 16.7091 37.669 17.1369 38.091C17.5647 38.5129 18.145 38.75 18.75 38.75H55.25ZM57.5312 24.5C57.5312 25.0967 57.2909 25.669 56.8631 26.091C56.4353 26.5129 55.855 26.75 55.25 26.75H18.75C18.145 26.75 17.5647 26.5129 17.1369 26.091C16.7091 25.669 16.4687 25.0967 16.4687 24.5C16.4687 23.9033 16.7091 23.331 17.1369 22.909C17.5647 22.4871 18.145 22.25 18.75 22.25H55.25C55.855 22.25 56.4353 22.4871 56.8631 22.909C57.2909 23.331 57.5312 23.9033 57.5312 24.5Z" fill="#9747FF"/>
</svg>
